<mxfile host="app.diagrams.net" agent="Mozilla/5.0 (Windows NT 10.0; Win64; x64) AppleWebKit/537.36 (KHTML, like Gecko) Chrome/140.0.0.0 Safari/537.36 Edg/140.0.0.0" version="28.2.3">
  <diagram name="PÃ¡gina-1" id="J1b8shDVQcR8pn6H8_FM">
    <mxGraphModel dx="1418" dy="786" grid="1" gridSize="10" guides="1" tooltips="1" connect="1" arrows="1" fold="1" page="1" pageScale="1" pageWidth="827" pageHeight="1169" math="0" shadow="0">
      <root>
        <mxCell id="0" />
        <mxCell id="1" parent="0" />
        <mxCell id="Z9ERJ5VewGAPaH_aEc3q-7" value="" style="edgeStyle=orthogonalEdgeStyle;rounded=0;orthogonalLoop=1;jettySize=auto;html=1;" edge="1" parent="1" source="Z9ERJ5VewGAPaH_aEc3q-1" target="Z9ERJ5VewGAPaH_aEc3q-2">
          <mxGeometry relative="1" as="geometry" />
        </mxCell>
        <mxCell id="Z9ERJ5VewGAPaH_aEc3q-1" value="inicio&lt;div&gt;&lt;br&gt;&lt;/div&gt;" style="ellipse;whiteSpace=wrap;html=1;" vertex="1" parent="1">
          <mxGeometry x="340" width="120" height="80" as="geometry" />
        </mxCell>
        <mxCell id="Z9ERJ5VewGAPaH_aEc3q-8" value="" style="edgeStyle=orthogonalEdgeStyle;rounded=0;orthogonalLoop=1;jettySize=auto;html=1;" edge="1" parent="1" source="Z9ERJ5VewGAPaH_aEc3q-2" target="Z9ERJ5VewGAPaH_aEc3q-3">
          <mxGeometry relative="1" as="geometry" />
        </mxCell>
        <mxCell id="Z9ERJ5VewGAPaH_aEc3q-2" value="ler nota" style="shape=parallelogram;perimeter=parallelogramPerimeter;whiteSpace=wrap;html=1;fixedSize=1;" vertex="1" parent="1">
          <mxGeometry x="340" y="130" width="120" height="60" as="geometry" />
        </mxCell>
        <mxCell id="Z9ERJ5VewGAPaH_aEc3q-17" value="" style="edgeStyle=orthogonalEdgeStyle;rounded=0;orthogonalLoop=1;jettySize=auto;html=1;" edge="1" parent="1" source="Z9ERJ5VewGAPaH_aEc3q-3" target="Z9ERJ5VewGAPaH_aEc3q-5">
          <mxGeometry relative="1" as="geometry" />
        </mxCell>
        <mxCell id="Z9ERJ5VewGAPaH_aEc3q-21" value="" style="edgeStyle=orthogonalEdgeStyle;rounded=0;orthogonalLoop=1;jettySize=auto;html=1;" edge="1" parent="1" source="Z9ERJ5VewGAPaH_aEc3q-3" target="Z9ERJ5VewGAPaH_aEc3q-4">
          <mxGeometry relative="1" as="geometry" />
        </mxCell>
        <mxCell id="Z9ERJ5VewGAPaH_aEc3q-3" value="nota &amp;gt; 9,5" style="rhombus;whiteSpace=wrap;html=1;" vertex="1" parent="1">
          <mxGeometry x="360" y="240" width="80" height="80" as="geometry" />
        </mxCell>
        <mxCell id="Z9ERJ5VewGAPaH_aEc3q-40" style="edgeStyle=orthogonalEdgeStyle;rounded=0;orthogonalLoop=1;jettySize=auto;html=1;entryX=1;entryY=0.5;entryDx=0;entryDy=0;" edge="1" parent="1" source="Z9ERJ5VewGAPaH_aEc3q-4" target="Z9ERJ5VewGAPaH_aEc3q-25">
          <mxGeometry relative="1" as="geometry">
            <Array as="points">
              <mxPoint x="730" y="540" />
            </Array>
          </mxGeometry>
        </mxCell>
        <mxCell id="Z9ERJ5VewGAPaH_aEc3q-4" value="Passou de ano" style="shape=parallelogram;perimeter=parallelogramPerimeter;whiteSpace=wrap;html=1;fixedSize=1;" vertex="1" parent="1">
          <mxGeometry x="670" y="250" width="120" height="60" as="geometry" />
        </mxCell>
        <mxCell id="Z9ERJ5VewGAPaH_aEc3q-28" value="" style="edgeStyle=orthogonalEdgeStyle;rounded=0;orthogonalLoop=1;jettySize=auto;html=1;" edge="1" parent="1" source="Z9ERJ5VewGAPaH_aEc3q-5" target="Z9ERJ5VewGAPaH_aEc3q-25">
          <mxGeometry relative="1" as="geometry" />
        </mxCell>
        <mxCell id="Z9ERJ5VewGAPaH_aEc3q-5" value="Reprovou de ano" style="shape=parallelogram;perimeter=parallelogramPerimeter;whiteSpace=wrap;html=1;fixedSize=1;" vertex="1" parent="1">
          <mxGeometry x="340" y="400" width="120" height="60" as="geometry" />
        </mxCell>
        <mxCell id="Z9ERJ5VewGAPaH_aEc3q-11" value="fim" style="ellipse;whiteSpace=wrap;html=1;" vertex="1" parent="1">
          <mxGeometry x="340" y="585" width="120" height="80" as="geometry" />
        </mxCell>
        <mxCell id="Z9ERJ5VewGAPaH_aEc3q-29" value="" style="edgeStyle=orthogonalEdgeStyle;rounded=0;orthogonalLoop=1;jettySize=auto;html=1;" edge="1" parent="1" source="Z9ERJ5VewGAPaH_aEc3q-25" target="Z9ERJ5VewGAPaH_aEc3q-11">
          <mxGeometry relative="1" as="geometry" />
        </mxCell>
        <mxCell id="Z9ERJ5VewGAPaH_aEc3q-25" value="" style="ellipse;whiteSpace=wrap;html=1;aspect=fixed;fillColor=#f8cecc;strokeColor=#b85450;" vertex="1" parent="1">
          <mxGeometry x="390" y="530" width="20" height="20" as="geometry" />
        </mxCell>
      </root>
    </mxGraphModel>
  </diagram>
</mxfile>
